<svg xmlns="http://www.w3.org/2000/svg" viewBox="0 0 209.74 109.24"><g id="Capa_2" data-name="Capa 2"><g id="Capa_1-2" data-name="Capa 1"><path d="M105.83,40a2.5,2.5,0,0,0-1.53-.3,35.91,35.91,0,0,1-5.87-.27,13.64,13.64,0,0,1-3.51-.63,3.43,3.43,0,0,0-1.61-.27,15.2,15.2,0,0,0-4,.48.44.44,0,0,1-.22,0c-1.53-.12-3,.41-4.53.42-3.71,0-7.42,0-11.13,0a4.19,4.19,0,0,1-1.82-.27,2.63,2.63,0,0,0-1.08-.11,12.23,12.23,0,0,1-3.34-.33,16.59,16.59,0,0,0-2.59-.26,14.61,14.61,0,0,1-2.84-.65,4.62,4.62,0,0,0-.74-.15,42.62,42.62,0,0,1-6.91-1.82c-.77-.27-1.63-.3-2.42-.59-1.8-.66-3.72-1-5.48-1.75-2.29-1-4.69-1.74-6.9-2.93-1.56-.84-3.21-1.5-4.77-2.33-2.37-1.27-4.75-2.5-7.19-3.6A70,70,0,0,0,19,21.11c-2.11-.63-4.18-1.37-6.33-1.9a34.16,34.16,0,0,0-4.45-.93,10.36,10.36,0,0,1-1.33-.44,18.45,18.45,0,0,0-4.44-.31A5.53,5.53,0,0,1,1,17.41c-1.1-.27-1.36-1.09-.58-1.92.42-.45.93-.81,1.38-1.23a11.22,11.22,0,0,1,3.81-2c1.56-.59,3.06-1.32,4.67-1.78,2.16-.62,4.26-1.48,6.43-2a20.25,20.25,0,0,1,4.73-.62c2,0,4.08,0,6.12,0A19.9,19.9,0,0,1,31,8.08c2.25.33,4.49.75,6.72,1.16A62.71,62.71,0,0,1,44,10.77c2.67.79,5.33,1.65,7.92,2.68,1.62.64,3.2,1.37,4.76,2.11,2,.94,3.88,2,5.88,2.84A51.14,51.14,0,0,1,69,21.83c3,1.87,6,3.7,9,5.58,1.22.77,2.35,1.7,3.6,2.42,1.9,1.08,3.68,2.34,5.52,3.5,1.57,1,3.23,1.81,4.87,2.65a1.1,1.1,0,0,0,.63.16,26.32,26.32,0,0,1,6.27.54,61.14,61.14,0,0,0,8.32.59c2.8,0,5.6,0,8.4,0a19.19,19.19,0,0,0,3.83-.73c2.19-.47,4.35-1.07,6.56-1.48l5.43-1c1.88-.36,3.75-.68,5.65-1a15.65,15.65,0,0,0,3.08-.59,12,12,0,0,1,1.61-.21c2.75-.47,5.52-.83,8.23-1.47,1.93-.45,3.89-.81,5.8-1.35s3.54-1,5.32-1.49a42.72,42.72,0,0,0,4.65-1.51c2.37-.9,4.81-1.65,7.13-2.67,1.72-.75,3.45-1.5,5.12-2.37.95-.5,1.91-1,3.06-1.54a2.46,2.46,0,0,0-1.59-.08,15.53,15.53,0,0,1-4.16.63,35.18,35.18,0,0,1-5.33.25,1.2,1.2,0,0,0-.33,0c-3,.86-6.14.28-9.21.39-2.49-.68-5.08-.22-7.57-.69-2.31-.42-4.36.3-6.47.92-1.71.51-3.3,1.31-5,2a72.5,72.5,0,0,1-7.41,2.5,33.76,33.76,0,0,1-5.2,1.06c-.63.07-1.23.33-1.88.43-1.37.21-2.76.17-4.12.4a7.84,7.84,0,0,1-1.19.07c-2.19,0-4.37,0-6.55,0-1.6,0-3.18-.24-4.76-.41s-3-.57-4.47-.85A53.18,53.18,0,0,1,100.18,25c-2.66-.82-5.29-1.76-7.89-2.77-2.43-.95-4.9-1.83-7.25-2.94-2.83-1.32-5.77-2.34-8.63-3.59a28.92,28.92,0,0,0-4.22-1.38c-2-.5-3.86-1.26-5.83-1.69A49.14,49.14,0,0,0,58,11.21a1.29,1.29,0,0,1-1.13-1.33c0-.43.4-.58.76-.67.7-.2,1.35-.58,2-.78a29.85,29.85,0,0,0,3.94-1.55A27,27,0,0,0,67,5.4a11.72,11.72,0,0,1,2.66-.89,53.78,53.78,0,0,1,6.61-1.8c2-.36,3.87-.87,5.86-1.06.74-.08,1.43-.42,2.2-.51C85.6,1,86.88.73,88.19.72a1,1,0,0,0,.43,0,5.77,5.77,0,0,1,3.2-.41C94.26.33,96.69,0,99.12,0c2.25,0,4.5.36,6.75.24,2.24.72,4.62.44,6.86,1a70.46,70.46,0,0,1,8.77,2.46c2,.81,4.19,1.44,6.18,2.37A19.89,19.89,0,0,1,131,7.62a4,4,0,0,0,1,.37c2.16.76,4.19,1.81,6.29,2.72a60.41,60.41,0,0,1,6,3.08c.79.45,1.58.9,2.39,1.3a5.36,5.36,0,0,1,1.46.94,4.4,4.4,0,0,0,2.92,1,21.69,21.69,0,0,1,3.56.36c2.05.51,4.15,0,6.16.62a3.14,3.14,0,0,0,1,.05h8.62a2,2,0,0,0,.55,0c1.49-.43,3.06-.15,4.54-.41,2.65-.46,5.36-.31,8-.91,1.74-.4,3.59-.55,5.19-1.47A26.22,26.22,0,0,0,191,13.63q4.29-3.24,8.62-6.44c1.54-1.14,3.13-2.22,4.67-3.36a27.64,27.64,0,0,0,2.59-2.49c.31-.3.62-.61,1-.89A1.77,1.77,0,0,1,209,0a.64.64,0,0,1,.69.86,1.66,1.66,0,0,1-.19.51A12.11,12.11,0,0,1,206.2,5.3a5.13,5.13,0,0,0-.66.56,25.2,25.2,0,0,1-2.87,2.5c-1.47,1.29-3,2.47-4.56,3.68-.94.74-1.92,1.44-2.87,2.16l-3.47,2.62a72.23,72.23,0,0,1-6.4,4.3A11.4,11.4,0,0,0,182.44,24c-.84,1.05-1.79,2-2.59,3.08s-2,2.27-2.9,3.51a8,8,0,0,1-1.28,1.33,1.52,1.52,0,0,0-.54,1,25.64,25.64,0,0,1-1.81,6.12c-.41,1.16-.89,2.3-1.33,3.45a31.33,31.33,0,0,1-1.43,3c-.6,1.16-1.13,2.35-1.76,3.5a80.6,80.6,0,0,1-5.73,9.23,72.78,72.78,0,0,1-7.63,8.63c-1.95,1.91-4,3.7-6,5.6-1,1-2.16,1.82-3.25,2.71-1.74,1.43-3.55,2.76-5.32,4.15-2.06,1.61-4.16,3.16-6.19,4.81-1.77,1.44-3.44,3-5.2,4.46-1,.85-2.15,1.61-3.24,2.39-2,1.46-3.89,3.13-5.82,4.73A35.78,35.78,0,0,0,116,100a52.51,52.51,0,0,0-4.81,5.61,16,16,0,0,1-2.79,3.2,1.39,1.39,0,0,1-1.16.47.83.83,0,0,1-.77-1.14,30.86,30.86,0,0,0,.79-4.27,6.15,6.15,0,0,1,.42-1.79,31.75,31.75,0,0,0,.85-3.69c.64-2.53,1.35-5,2.2-7.5.47-1.37,1.08-2.68,1.5-4.08a55.73,55.73,0,0,1,2.59-6.67c.83-1.89,1.8-3.72,2.64-5.61a10.28,10.28,0,0,1,.68-1.11,82.61,82.61,0,0,1,5.76-9.07c1.57-2.08,3.17-4.13,4.82-6.14a103.18,103.18,0,0,1,8.05-8.28c1.95-1.88,4-3.63,6.18-5.32a51.7,51.7,0,0,1,5.68-4,44.51,44.51,0,0,1,6.47-3.35,36.53,36.53,0,0,0,3.6-1.79c2.55-1.32,5.22-2.38,7.85-3.52a48,48,0,0,0,6-2.61.78.78,0,0,1,.3-.13c1.91-.18,2.31-1.92,3.35-3-.23-.28-.42-.27-.58-.18-1.55.79-3.21,1.34-4.8,2.06a2.42,2.42,0,0,1-.51.19,28.36,28.36,0,0,0-4.42,1.49c-2.36.85-4.78,1.43-7.16,2.19s-5,1.48-7.55,2c-1.59.36-3.2.61-4.78,1-1.31.29-2.62.52-3.93.77s-2.76.54-4.15.79c-.5.09-1,.1-1.51.15a45.73,45.73,0,0,0-4.79.85,11.14,11.14,0,0,1-1.52.13,31,31,0,0,0-4.58.83,4.91,4.91,0,0,1-.86.08,5.63,5.63,0,0,0-3.52,1.23A15.32,15.32,0,0,1,119,41.56a5,5,0,0,0-2.24,3,48.71,48.71,0,0,1-2.06,5,20.66,20.66,0,0,0-1.1,3.06c-.42,1.4-1.07,2.69-1.57,4a25.1,25.1,0,0,1-1.45,3.38c-.91,1.66-1.6,3.41-2.57,5-.42.71-.73,1.49-1.09,2.24A39.54,39.54,0,0,1,104.82,71c-.7,1.15-1.42,2.28-2.19,3.38-1.2,1.72-2.62,3.28-3.92,4.92-1.82,2.29-4.06,4.15-6,6.31a27.71,27.71,0,0,1-2.8,2.4c-2.74,2.32-5.5,4.62-8.23,7a70.22,70.22,0,0,1-7.12,5.21c-2.21,1.45-4.4,3-6.7,4.26a47.67,47.67,0,0,1-6.49,3.3c-1.24.47-2-.09-1.85-1.41a3.3,3.3,0,0,1,.6-1.62c1.78-2.38,3.59-4.72,5.24-7.2.26-.39.52-.78.75-1.19.72-1.3,1.6-2.5,2.44-3.73A36,36,0,0,0,71,88.36c.73-1.45,1.57-2.86,2.33-4.31,1-1.83,1.78-3.73,2.65-5.61a64.93,64.93,0,0,1,6-10.68c.6-.84,1.25-1.67,1.94-2.47,1-1.15,2-2.28,3-3.46a43,43,0,0,1,3.27-3.35c2.19-2.18,4.39-4.35,6.57-6.54a44.81,44.81,0,0,1,4.26-3.53c1.11-.88,2.31-1.63,3.39-2.54a6.8,6.8,0,0,1,1.29-.8,40,40,0,0,1,5.39-2.81c.21-.08.34-.25.51-.56a4.66,4.66,0,0,0-2,.35,9.81,9.81,0,0,1-1.66.48,84.19,84.19,0,0,0-9.57,2.87c-1.79.6-3.61,1.1-5.39,1.71-1.44.49-2.85,1.07-4.27,1.62a1.87,1.87,0,0,0-.64.4,73.23,73.23,0,0,1-5.72,4.67c-2.18,1.79-4.54,3.36-6.7,5.18S71.11,62.37,69,64.24c-1.9,1.67-4,3.13-5.93,4.74C60,71.5,56.7,73.79,53.51,76.19A64.67,64.67,0,0,1,47.71,80c-2.15,1.29-4.36,2.48-6.55,3.69-1.49.81-3.08,1.44-4.57,2.26-1.18.66-2.5,1-3.67,1.63a3,3,0,0,1-1,.38,46.29,46.29,0,0,0-4.62,1.24,40.85,40.85,0,0,0-5.08,1.59c-1,.4-2.08.84-3.13,1.24-1.21.46-2.31,1.2-3.57,1.56-.28.08-.54.22-.82.29a1.06,1.06,0,0,1-1.33-.45,1.13,1.13,0,0,1,.2-1.4,7.81,7.81,0,0,1,1.16-1.14,20.34,20.34,0,0,0,3.17-3.12c1.16-1.34,2.28-2.72,3.54-4,1.09-1.1,2-2.34,3-3.55.73-.9,1.6-1.68,2.42-2.51s1.82-1.68,2.6-2.63c1-1.26,2.21-2.39,3.19-3.7.66-.89,1.49-1.69,2.14-2.6.91-1.27,2.19-2.21,3-3.55A4.88,4.88,0,0,1,39.14,64a11.37,11.37,0,0,0,2.68-2.68,8.69,8.69,0,0,1,2.26-2.18c1-.64,1.71-1.55,2.66-2.24a45.87,45.87,0,0,1,9.61-5.7c2.14-.88,4.26-1.83,6.48-2.5a26.83,26.83,0,0,1,5.79-1.38,8.87,8.87,0,0,0,2-.43,25.2,25.2,0,0,1,3.64-.55c1.44-.24,2.91-.17,4.33-.41a40.9,40.9,0,0,1,6.81-.56c1.22,0,2.45.08,3.66.2.77.08,1.31-.4,1.94-.62,2-.67,3.91-1.31,5.92-1.81a25.72,25.72,0,0,0,3.91-1.25c1.39-.58,2.88-1,4.32-1.45C105.39,40.36,105.68,40.4,105.83,40Zm7.53,1.16a.17.17,0,0,0-.25-.11c-.09,0-.23.11-.23.17s.14.11.23.1S113.32,41.31,113.36,41.18Z"/></g></g></svg>