<svg xmlns="http://www.w3.org/2000/svg" viewBox="0 0 209.76 109.29"><g id="Capa_2" data-name="Capa 2"><g id="Capa_1-2" data-name="Capa 1"><g id="Capa_2-2" data-name="Capa 2"><g id="Capa_1-2-2" data-name="Capa 1-2"><path d="M105.18,68.84c-1.44-.45-2.93-.87-4.32-1.45A26.94,26.94,0,0,0,97,66.14c-2-.5-3.92-1.14-5.92-1.81-.63-.22-1.17-.7-1.94-.62-1.21.12-2.44.2-3.66.2a39.86,39.86,0,0,1-6.81-.56c-1.42-.24-2.89-.17-4.33-.41a23.52,23.52,0,0,1-3.64-.55,9.15,9.15,0,0,0-2-.43,26.13,26.13,0,0,1-5.79-1.38c-2.22-.67-4.34-1.62-6.48-2.5a45.69,45.69,0,0,1-9.61-5.7c-1-.69-1.66-1.6-2.66-2.24A8.52,8.52,0,0,1,41.85,48a11.56,11.56,0,0,0-2.68-2.68,4.79,4.79,0,0,1-1.35-1.23c-.81-1.34-2.09-2.28-3-3.55-.65-.91-1.48-1.71-2.14-2.6-1-1.31-2.19-2.44-3.19-3.7-.78-1-1.78-1.8-2.6-2.63S25.2,30,24.47,29.06c-1-1.21-1.91-2.45-3-3.55-1.26-1.28-2.38-2.66-3.54-4a20.79,20.79,0,0,0-3.17-3.12,7.35,7.35,0,0,1-1.16-1.14,1.12,1.12,0,0,1-.2-1.4,1.08,1.08,0,0,1,1.33-.45c.28.07.54.21.82.29,1.26.36,2.36,1.1,3.57,1.56,1.05.4,2.13.84,3.13,1.24a39.33,39.33,0,0,0,5.08,1.59A43.73,43.73,0,0,0,32,21.32a3.28,3.28,0,0,1,1,.38c1.17.63,2.49,1,3.67,1.63,1.49.82,3.08,1.45,4.57,2.26,2.19,1.21,4.4,2.4,6.55,3.69a65.83,65.83,0,0,1,5.8,3.81c3.19,2.4,6.49,4.69,9.56,7.21C65,41.91,67.13,43.37,69,45c2.11,1.87,4.49,3.44,6.65,5.26s4.52,3.39,6.7,5.18q3,2.19,5.72,4.67a1.65,1.65,0,0,0,.64.4c1.42.55,2.83,1.13,4.27,1.62,1.78.61,3.6,1.11,5.39,1.71A82.2,82.2,0,0,0,108,66.75a11.7,11.7,0,0,1,1.66.48,4.44,4.44,0,0,0,2,.35c-.17-.31-.3-.48-.51-.56a37.78,37.78,0,0,1-5.39-2.81,6.16,6.16,0,0,1-1.29-.8c-1.08-.91-2.28-1.66-3.39-2.54a43.34,43.34,0,0,1-4.26-3.53c-2.18-2.19-4.38-4.36-6.57-6.54A41.38,41.38,0,0,1,87,47.45c-1-1.18-2-2.31-3-3.46-.69-.8-1.34-1.63-1.94-2.47a64.68,64.68,0,0,1-6-10.68c-.87-1.88-1.65-3.78-2.65-5.61-.76-1.45-1.6-2.86-2.33-4.31a37.69,37.69,0,0,0-2.45-4.27c-.84-1.23-1.72-2.43-2.44-3.73-.23-.41-.49-.8-.75-1.19-1.65-2.48-3.46-4.82-5.24-7.2a3.23,3.23,0,0,1-.6-1.62C59.4,1.59,60.16,1,61.4,1.5a49.46,49.46,0,0,1,6.49,3.3c2.3,1.26,4.49,2.81,6.7,4.26a71.36,71.36,0,0,1,7.12,5.21c2.73,2.38,5.49,4.68,8.23,7a27.89,27.89,0,0,1,2.8,2.4c1.94,2.16,4.18,4,6,6.31,1.3,1.64,2.72,3.2,3.92,4.92.77,1.1,1.49,2.23,2.19,3.38A39.57,39.57,0,0,1,107,42c.36.75.67,1.53,1.09,2.24,1,1.59,1.66,3.34,2.57,5a24.56,24.56,0,0,1,1.45,3.38c.5,1.31,1.15,2.6,1.57,4a20.26,20.26,0,0,0,1.1,3.06,48.21,48.21,0,0,1,2.06,5,5,5,0,0,0,2.24,3,16,16,0,0,1,2.54,1.77,5.57,5.57,0,0,0,3.52,1.23,6.11,6.11,0,0,1,.86.08,29.51,29.51,0,0,0,4.58.83,12.81,12.81,0,0,1,1.52.13,43.27,43.27,0,0,0,4.79.85c.51,0,1,.06,1.51.15,1.39.25,2.84.54,4.15.79s2.62.48,3.93.77c1.58.39,3.19.64,4.78,1a73.84,73.84,0,0,1,7.55,2c2.38.76,4.8,1.34,7.16,2.19A27.68,27.68,0,0,0,170.34,81a2.82,2.82,0,0,1,.51.19c1.59.72,3.25,1.27,4.8,2.06.16.09.35.1.58-.18-1-1.08-1.44-2.82-3.35-3a.67.67,0,0,1-.3-.13,49.9,49.9,0,0,0-6-2.61c-2.63-1.14-5.3-2.2-7.85-3.52a37.67,37.67,0,0,0-3.6-1.79,43.09,43.09,0,0,1-6.47-3.35,50.93,50.93,0,0,1-5.68-4,75.43,75.43,0,0,1-6.18-5.32,101.49,101.49,0,0,1-8.05-8.28c-1.65-2-3.25-4.06-4.82-6.14a82.21,82.21,0,0,1-5.76-9.07,8.9,8.9,0,0,1-.68-1.11c-.84-1.89-1.81-3.72-2.64-5.61a54.45,54.45,0,0,1-2.59-6.67c-.42-1.4-1-2.71-1.5-4.08-.85-2.5-1.56-5-2.2-7.5a31.75,31.75,0,0,0-.85-3.69,6.07,6.07,0,0,1-.42-1.79,31.14,31.14,0,0,0-.79-4.27.78.78,0,0,1-.06-.31.83.83,0,0,1,.83-.83,1.41,1.41,0,0,1,1.16.47,16,16,0,0,1,2.79,3.2A51.54,51.54,0,0,0,116,9.28a35.9,35.9,0,0,0,4.42,4.3c1.93,1.6,3.82,3.27,5.82,4.73,1.09.78,2.24,1.54,3.24,2.39,1.76,1.46,3.43,3,5.2,4.46,2,1.65,4.13,3.2,6.19,4.81,1.77,1.39,3.58,2.72,5.32,4.15a42,42,0,0,1,3.25,2.71c2,1.9,4.05,3.69,6,5.6a73.47,73.47,0,0,1,7.63,8.63,80.6,80.6,0,0,1,5.73,9.23c.63,1.15,1.16,2.34,1.76,3.5a31.62,31.62,0,0,1,1.43,3c.44,1.15.92,2.29,1.33,3.45a25.78,25.78,0,0,1,1.81,6.12,1.49,1.49,0,0,0,.54,1A8,8,0,0,1,177,78.69c.9,1.24,2.1,2.43,2.9,3.51s1.75,2,2.59,3.08a11.3,11.3,0,0,0,2.93,2.88,74.47,74.47,0,0,1,6.4,4.3l3.47,2.62c.95.72,1.93,1.42,2.87,2.16,1.56,1.21,3.09,2.39,4.56,3.68a25.32,25.32,0,0,1,2.87,2.5,3.91,3.91,0,0,0,.66.56,12.14,12.14,0,0,1,3.3,3.93,1.66,1.66,0,0,1,.19.51.6.6,0,0,1,0,.32.63.63,0,0,1-.72.54,1.74,1.74,0,0,1-1.12-.45,9.72,9.72,0,0,1-1-.89,29,29,0,0,0-2.59-2.49c-1.54-1.14-3.13-2.22-4.67-3.36q-4.34-3.2-8.62-6.44c-.74-.58-1.52-1.13-2.32-1.64-1.6-.92-3.45-1.07-5.19-1.47-2.64-.6-5.35-.45-8-.91-1.48-.26-3.05,0-4.54-.41a2.53,2.53,0,0,0-.55,0h-8.62a3.36,3.36,0,0,0-1,0c-2,.62-4.11.11-6.16.62a21.27,21.27,0,0,1-3.56.36,4.43,4.43,0,0,0-2.92,1,5.14,5.14,0,0,1-1.46.94c-.81.4-1.6.85-2.39,1.3a58.5,58.5,0,0,1-6,3.08c-2.1.91-4.13,2-6.29,2.72a4.45,4.45,0,0,0-1,.37,19.64,19.64,0,0,1-3.32,1.55c-2,.93-4.18,1.56-6.18,2.37a70.46,70.46,0,0,1-8.77,2.46c-2.24.56-4.62.28-6.86,1-2.25-.12-4.5.24-6.75.24-2.43,0-4.86-.33-7.3-.31a5.68,5.68,0,0,1-3.2-.41,1,1,0,0,0-.43,0,37.65,37.65,0,0,1-3.86-.42c-.77-.09-1.46-.43-2.2-.51-2-.19-3.86-.7-5.86-1.06a52.06,52.06,0,0,1-6.61-1.8,11,11,0,0,1-2.66-.89,28.15,28.15,0,0,0-3.43-1.48,32.54,32.54,0,0,0-3.94-1.55c-.65-.2-1.3-.58-2-.78-.36-.09-.76-.24-.76-.67A1.3,1.3,0,0,1,58,98.07a48.37,48.37,0,0,0,8.36-1.42c2-.43,3.83-1.19,5.83-1.69a28.51,28.51,0,0,0,4.22-1.38c2.86-1.25,5.8-2.27,8.63-3.59,2.35-1.11,4.82-2,7.25-2.94,2.6-1,5.23-2,7.89-2.77a55.38,55.38,0,0,1,5.66-1.48c1.47-.28,2.89-.68,4.47-.85a44.5,44.5,0,0,1,4.76-.41h6.55a9.39,9.39,0,0,1,1.19.07c1.36.23,2.75.19,4.12.4.65.1,1.25.36,1.88.43A35.24,35.24,0,0,1,134,83.5a74.15,74.15,0,0,1,7.41,2.5c1.7.69,3.29,1.49,5,2,2.11.62,4.16,1.34,6.47.92,2.49-.47,5.08,0,7.57-.69,3.07.11,6.21-.47,9.21.39a.92.92,0,0,0,.33,0,36.52,36.52,0,0,1,5.33.25,15.81,15.81,0,0,1,4.16.63,2.41,2.41,0,0,0,1.59-.08c-1.15-.54-2.11-1-3.06-1.54-1.67-.87-3.4-1.62-5.12-2.37-2.32-1-4.76-1.77-7.13-2.67a44.24,44.24,0,0,0-4.65-1.51l-5.32-1.49c-1.91-.54-3.87-.9-5.8-1.35-2.71-.64-5.48-1-8.23-1.47a10.91,10.91,0,0,1-1.61-.21,16.92,16.92,0,0,0-3.08-.59c-1.9-.32-3.77-.64-5.65-1l-5.43-1c-2.21-.41-4.37-1-6.56-1.48a19.92,19.92,0,0,0-3.83-.73h-8.4a62.66,62.66,0,0,0-8.32.59,25.9,25.9,0,0,1-6.27.54,1.16,1.16,0,0,0-.63.16c-1.64.84-3.3,1.65-4.87,2.65-1.84,1.16-3.62,2.42-5.52,3.5-1.25.72-2.38,1.65-3.6,2.42-3,1.88-6,3.71-9,5.58a49,49,0,0,1-6.44,3.43c-2,.84-3.88,1.9-5.88,2.84-1.56.74-3.14,1.47-4.76,2.11-2.59,1-5.25,1.89-7.92,2.68A61.78,61.78,0,0,1,37.75,100c-2.23.41-4.47.83-6.72,1.16a18.88,18.88,0,0,1-3.44.22H21.47a19.37,19.37,0,0,1-4.73-.62c-2.17-.52-4.27-1.38-6.43-2C8.7,98.34,7.2,97.61,5.64,97a11.06,11.06,0,0,1-3.81-2c-.45-.42-1-.78-1.38-1.23C-.33,93-.07,92.14,1,91.87a5.88,5.88,0,0,1,1.45-.12,17.86,17.86,0,0,0,4.44-.31A12.18,12.18,0,0,1,8.25,91a33.82,33.82,0,0,0,4.45-.93c2.15-.53,4.22-1.27,6.33-1.9a68,68,0,0,0,8.35-3.53c2.44-1.1,4.82-2.33,7.19-3.6,1.56-.83,3.21-1.49,4.77-2.33,2.21-1.19,4.61-1.93,6.9-2.93C48,75,49.92,74.69,51.72,74c.79-.29,1.65-.32,2.42-.59a44.48,44.48,0,0,1,6.91-1.82,4.62,4.62,0,0,0,.74-.15,15.2,15.2,0,0,1,2.84-.65,15.06,15.06,0,0,0,2.59-.26,12.51,12.51,0,0,1,3.34-.33,2.48,2.48,0,0,0,1.08-.11,4.34,4.34,0,0,1,1.82-.27H84.59c1.53,0,3,.54,4.53.42h.22a15,15,0,0,0,4,.48A3.31,3.31,0,0,0,95,70.48a14,14,0,0,1,3.51-.63,36,36,0,0,1,5.87-.27,2.41,2.41,0,0,0,1.53-.3C105.71,68.88,105.42,68.92,105.18,68.84Zm8.21-.74c0-.13-.16-.13-.25-.14s-.23,0-.23.1.14.17.23.17l0,0a.16.16,0,0,0,.2-.13Z"/></g></g></g></g></svg>