<svg xmlns="http://www.w3.org/2000/svg" viewBox="0 0 363.08 630.03"><g id="Capa_2" data-name="Capa 2"><g id="Capa_1-2" data-name="Capa 1"><path d="M123.45,137.4c-2.79,5.22-5.53,10.46-8.38,15.65A188.7,188.7,0,0,1,83.4,194.81c-.18.18-.51.2-1.28.48,2-3.27,3.66-6.27,5.65-9a49.42,49.42,0,0,0,8.61-20.21c1.51-7.82,3.17-15.62,4.28-23.5.84-5.94.92-12,1.36-18.27-2.45,1.74-2.9,4.37-3.62,6.7-2.19,7-5.39,13.71-7.85,20.64a146.53,146.53,0,0,0-4.25,14.66,88,88,0,0,1-2.23,9c-1.51,4.26-1.89,8.7-2.83,13.06-.69,3.2-1.82,6.29-2.22,9.58-.28,2.26-1.94,3.71-4.14,5.22.18-4.19,1.49-7.72,2.09-11.35,1.31-7.91,3.17-15.72,4.92-23.55a131.53,131.53,0,0,1,6.16-18.93,49.08,49.08,0,0,0,1.73-5.13C92,135.67,96.25,128,99.69,120c2.76-6.39,6.21-12.39,9.3-18.58,1.92-3.84,3.22-7.94,5.25-11.67,7.58-14,14.81-28.22,24-41.27,3.75-5.33,8.92-9.15,14.48-12.32,9.08-5.17,17.85-10.86,27.37-15.28,13.74-6.39,27.39-13,41.14-19.32C226.53-.85,231.6.11,236.67.64a90.41,90.41,0,0,1,16,3.65c11,3.23,22.06,5.87,32.78,10,8,3.1,16.19,5.72,24.29,8.57,10.34,3.64,16.16,10.73,19,21.21,1.63,6.07,5.11,11.62,7.21,17.59,5,14.31,12.49,27.77,15.17,42.93.29,1.65-.7,4.15,1.49,4.91,2.61.91,5.35.33,7.89-.82.72-.32,1.32-1.49,2.23-.69s-.15,1.58-.31,2.37c-1.08,5.37-4.31,9.64-7.28,14a5.38,5.38,0,0,0-1,4.48c2.46,12.68,2.54,25.56,2.95,38.39.61,19.5-4.92,38.09-8.56,57-2.54,13.18-8,25.34-12.39,37.87-1.58,4.48-5,7.79-8.63,10.77-6.56,5.33-13.78,9.72-20.7,14.54-2.17,1.51-4.86.68-7.25.87-11.36.94-22.65.59-33.58-3.27-2.11-.75-5-2.12-6.44-1.32-2.14,1.16-.21,4.1-.13,6.25.3,8.94-2.46,17.25-4.52,25.76-3.09,12.71-6.27,25.44-6.41,38.67a8.26,8.26,0,0,0,1.59,5.12c5.55,7.94,12.43,14.69,19.15,21.59,4.73,4.86,9,10.15,13.76,14.95,10.47,10.56,13.28,23.51,11.33,37.45-2.53,18-4.65,36-8,53.91-3,15.73-5.7,31.5-8.56,47.25a29.84,29.84,0,0,1-1.33,6c-1.82,4.48-.61,8.48,1.14,12.65,4.16,9.86,7.2,20,8,30.78.48,6.12-1.81,11.43-4.62,16.57-2.28,4.16-4.79,8.2-7.3,12.22-.68,1.08-1.72,2.29-3,2.29-2.77,0-3.17,2.15-4.35,3.83-1.9,2.69-4.17,5.11-6.33,7.61a.63.63,0,0,1-1-.16c-.84-1.65-.94-1.68-2.38-.38-.47.42-1,.76-1.12,1.51a6,6,0,0,1-.71,1.52c-1.3.07-1.3-2.91-3.21-1.34-.55.45-1-.35-.88-.88.57-3.19-1.25-2.54-2.93-1.76-2.89,1.35-5.77,2.74-8.55,4.3-1.57.88-2.3,1.1-2.79-1.07-.64-2.83-3-2.37-5.18-2.24-1.37.08-2.83,1.88-4.06.18s.87-2.47,1.5-3.58.61-2.6,2.28-3c-1.59-.45-3.06.14-4.62-.64-1.12-.57-.6,2-2.35,2.33-2.41.46-.32,1.34.09,2.28a5.42,5.42,0,0,1,.43,4.5c-1.63-2-2.49-4.51-4.92-5.39l.88-1.92c-2.06.09-4.28-.72-4.55,2.44a2.46,2.46,0,0,1-.11.45c-3.53-3.64-6.8,1.43-10.26.31a.51.51,0,0,0-.31.06c-.74.26-1.71.47-1.94-.38-.31-1.11.88-1.62,1.61-1.46,4.3,1,2-2.2,2.1-3.52.16-1.71-1.08-1.32-1.9-.65-2.53,2-5.45,1.24-8.26,1.26-.26,0-.52-.58-1.24-1.45,4.58,1,8-2,12-1.3,1.36.23,1-2.21,1.58-3.37,3.58,1.82,4.56,1.66,6.58-2.24.44-.85,2.87,0,1.47-1.75-.77-.93-2.06-.46-3,.14-1.44.92-2.79.28-4-.36-4-2.17-8.23.08-12.26-.88-.92-.22-1.55.2-1.62,1.06-.28,3.53-2.87,2.14-4.67,2.15-1.12,0-1.79-.3-1.95,1.34-.22,2.34-1.85-.28-2.73.58-.3.61.64.74.65,1.1,0,1.71,2.81-.35,2,1.23-.6,1.2-3.14,1.12-3.9.15-1.28-1.62-4.05-.06-4.59-2.56,0-.06-.39-.05-.6-.07.19,3-4,1.33-3.85,4.33,1.07.29,2.94.56,2.2,2.9-1.93.25-4.14-1.59-6.16,1.2-.85,1.18-3.75,1.25-5.84.4-.42-1.06,3-1.51.56-3-1.28-.8-2.15-2.87-4-.36-1,1.38-3.26,1.18-4.91,2-2.13,1.07-3.87,2.79-5.94,3.57-1.83.7-4.16,0-6.28.6-.58.16-.53-1.56-1.71-2a2.09,2.09,0,0,1-1.89,1.68c-.58-.67.15-1.16.36-1.62.44-1,.85-2.15.32-2.95-.69-1-1.92-.73-3.15-.53-.86.14-2.29,1.32-2.79,0s1.93-.64,2.05-1.94c-5.06-1.21-6.74-.63-9.59,3.27-1.4,1.91-1.52-.19-2.19-.7-2.58-1.92.74-3,.84-4.65.09-1.47,1.1.3,1.69.78a1.43,1.43,0,0,0,1.22,0,1.09,1.09,0,0,0,.49-1.39c-.26-.81-.81-1.53-.27-2.44.42-.7,2.46-.88,1.14-2a2.54,2.54,0,0,0-3.61.68c-.86,1.34-2.36.73-3.46.44a7.14,7.14,0,0,0-3.4-.07c-.88.21-1.78,1.35-2.54.25s.35-2,.64-3c.43-1.4,1.59-.51,2.48-.4.71.08,1.07.81,2,.64,2.86-.51,3.44-2.24,1.56-5-.64-.94-3-1.87-.17-3.14,1-.43-.3-.76-.29-1.17s-.35-1.45.4-1.22c3.51,1.09,2.67-1.78,3-3.3.71-3.21,3-5.47,4.69-8,4.95-7.41,9.72-14.93,15.22-22,9.23-11.86,17.78-24.26,26.86-36.25,7.92-10.45,15.37-21.28,22.17-32.41,8.9-14.56,18.08-29.09,25-44.72,4.38-9.83,4.23-19.83-2.16-29.37-10-15-21.85-28.08-37-38.05-2.8-1.84-5.66-3.54-8.5-5.3-4.83-3-9.57-2.49-14.14-.09-10.57,5.56-21.23,11-31.41,17.25a194.24,194.24,0,0,0-24.32,17.38c-4.17,3.55-7.61,8.24-11.79,11.89-5.38,4.68-7.71,10.85-10.38,17-6.29,14.52-9,30.1-13.52,45.13-3.59,11.82-6.82,23.73-10.64,35.49-3.48,10.73-7.65,21.31-9.65,32.58,3.31-6.06,6.54-12.16,9.94-18.16,5.28-9.33,9.86-19,14.34-28.72,6.42-13.92,13.13-27.84,13.77-43.64,0-1.08-.32-3.3,1.28-3.16,1.81.16,1.12,2.3,1,3.57a74.3,74.3,0,0,1-5.06,22.71c-7.49,19.65-17.12,38.27-27.18,56.7q-11.8,21.63-25,42.42c-1,1.63-1.86,3.36-2.88,5.21-.86-.93-.23-1.55,0-2.13,3.35-7.61,7.83-14.6,12-21.73a18.09,18.09,0,0,0,2.63-8.9c.13-11.37,3.86-22,6.57-32.78,2.31-9.26,5.27-18.32,8.09-27.43,2-6.58,4.71-12.93,6.53-19.59,2.26-8.27,4.71-16.5,7.48-24.6a230.65,230.65,0,0,1,8.84-22.86,47.27,47.27,0,0,1,14.71-18,199.78,199.78,0,0,0,16-13.63c5.77-5.38,12.77-8.79,19.52-12.51s13.94-6.57,21-9.71a56.9,56.9,0,0,1,14.84-4.36c2.25-.34,4.16.87,6.12,1.68,5.73,2.39,10.69,6.13,15.62,9.74,6.7,4.91,13.33,10,18.56,16.61,6.28,7.95,13.5,15.17,17.69,24.7,3.76,8.51,2.63,16.82-.53,24.89-2.36,6-6,11.51-8.93,17.28s-3.65,12-3.9,18.39a43.09,43.09,0,0,1-1.28,8.28c-1.88,7.84-1.53,15.91-2.65,23.8-1,7.06.42,13.65,2.23,20.28,1.42,5.17,5.65,8.05,9.35,11.48,6.33,5.86,13.92,9.5,21.43,13.39a90.49,90.49,0,0,1,8.14,5.21c1.85,1.23,2.92,1.26,2.88-1.42-.07-6.33-2.39-12-4.87-17.67-4.54-10.32-5-20.93-2.31-31.76a11.66,11.66,0,0,1,1.11-2.69,1.06,1.06,0,0,1,1.38-.55c.77.31.74.92.47,1.6-4.71,12.12-2.83,23.7,2.64,35.1a41.88,41.88,0,0,1,4,15.62c2.86-2.44,4.37-5.25,5.92-8,5.24-9.43,5.64-19.55,5-30.05-.78-13.06.4-26.05,2.44-39,2.41-15.29,6-30.35,8.45-45.61,1.09-6.77,2.1-13.55,3.56-20.24,1.31-6-.92-11.33-2.78-16.67-1.21-3.47-1.93-7.06-3.21-10.5-2.23-6-3.7-12.31-8.91-16.94-6.45-5.74-12-12.43-17.59-19.87-1.39,7.17-.1,14-2.3,20.73-.71-.79,0-3.19-2.62-1.51-3.24,2.05-7.28,1.53-11,.09-7.18-2.79-12.84-7.84-18.78-12.49-9.27-7.27-16.57-16.65-25.81-23.94-5-3.93-10-7.85-16.27-9.71a8,8,0,0,0-7.83,1.22c-10.15,7.52-19.34,16.19-29.35,23.89-11.62,8.93-23,18.16-34.27,27.57C94.37,392.21,88.89,398,83,403.33a116,116,0,0,0-23.58,29.29c-3.93,7-8.45,13.87-11.4,21.31-5.12,12.89-7.71,26.56-10.17,40.21-3.37,18.64-5.74,37.42-7.78,56.24-.9,8.32-2.26,16.57-3.41,24.88.5-6.91.91-13.82,1.54-20.71,1-10.78,1.84-21.58,3.23-32.31,1.31-10.08,2.39-20.22,4.84-30.1,1.21-4.84-.79-9.17-1.07-13.75a16.76,16.76,0,0,0-1-3.25c-.52,1.3-1,2.35-1.36,3.45-2.31,7.84-9,10.59-15.6,13.34a1,1,0,0,1-1.42-.35,1.28,1.28,0,0,1,.4-1.45c9.6-10.41,10.76-23.75,12.2-36.79.73-6.59-1.36-13.18-3.57-19.45-3.14-8.91-7.61-17.47-9.74-26.59-3.57-15.31-3.58-30.81,2.34-45.86,1.41-3.59,2.46-7.32,4.66-11-2.52.84-3.26,2.91-4.49,4.34C12.45,360.81,7.11,367,5.22,375c-.82,3.44-.46,7.25-1.3,10.81C3.3,388.35,3.2,390.71,5,393c1.15,1.46-.24,3.22.28,5,.84,2.88.79,5.88,3,8.43,1.61,1.83.91,4.69,1.68,7.52-2.25-1.46-2.39-3.55-3.25-5.18a60,60,0,0,1-6.63-31.3c.34-7.11,3-13.32,6.65-19.33,5.21-8.54,12.49-15.06,19.75-21.7,8.57-7.84,15.92-16.82,23.18-25.86,4.74-5.91,9.44-11.84,13.74-18.08.9-1.31,2-2.52,2.12-4.31C59,297.25,51.93,305.93,44.3,315.05c.26-3.42,1.7-5.69,3-7.79,3.13-5.23,3.11-10.84,3.09-16.58,0-1.63-1.73-3.88,1.53-4.94.59-.19.33-3.66.12-5.57-1.2-10.73-3-21.41-2.22-32.29-4.64,11.05-2,22.67-2.05,34.05-1.66,0-1.55-1-1.67-1.62-2.41-11.1-4.7-22.19-1.85-33.6a23,23,0,0,1,4.68-9.45c6.18-7.44,12.71-14.57,18.29-22.54,5.9-8.43,13.78-15.2,20.81-22.67a187,187,0,0,0,35.18-52.59,16.14,16.14,0,0,0,.56-1.83,18.57,18.57,0,0,0,3.3-10.35Q125.23,132.34,123.45,137.4ZM153.17,227l-.06,0c.7.85,1.24,1.6.76,2.89-.7,1.85-.44,3.88-.26,5.8.4,4.24,4.25,8.07,7.69,7.89,3-.15,7.1-4.4,7-7.91a9,9,0,0,1,2.34-6.6,3.68,3.68,0,0,0,1.23-2.83c0-.67.09-1.43,1-1.36s.86.85.9,1.5c.67,10.35,3.48,20.4,3.92,30.84a414.48,414.48,0,0,1-.71,42.16c-.63,10.47-2,20.79-6.49,30.42,3.06,1.24,6.23,1.95,9,3.64,8,4.79,15,10.86,21.57,17.34,5.44,5.34,10.52,11,16.65,15.62,5.37,4,10.66,8.16,17,10.64,4.18,1.63,8.53.17,9.69-3.49a44.1,44.1,0,0,0,1.4-6.95c.73-4.82.45-9.69.7-14.53.75-15.1,4.06-29.75,8.36-44.18,2.23-7.49,2.63-15.06,2.31-22.75-.05-1.16.07-2.82-1.43-2.9-2.46-.12-4.07-1.88-6.16-2.6a141.21,141.21,0,0,1-27.1-13.2c-13.74-8.32-26.79-17.54-37.84-29.33-.62-.67-1.76-1.53-.82-2.4s1.47.46,2,1c10.88,11,23.25,20.05,36.42,28.09a172,172,0,0,0,30.93,14.89c11.47,4.17,23.05,7.48,35.31,7.79,6.16.16,12.45.54,18.21-2.16s10.88-6.65,16-10.45,9.79-7.87,12.18-14.32c5.25-14.23,10.4-28.44,13.31-43.38,2.26-11.57,4.93-23.06,6.33-34.78,1.68-14.06.06-28-.89-42-.23-3.39.08-6.93-1.73-10.21-2.82,1.95-4.11,4.9-5.78,7.55-.88,1.37-4.64,1.42-5.48.07-.58-.93.4-1,.78-1.37,2.11-2.27,4.36-4.44,6.23-6.9,2.29-3,1-11.61-2.05-12.73a27,27,0,0,0-17-.65c6.25,1.62,8.91,5.75,9.34,11.88.13,1.83.26,2.77-1.88,3a2.07,2.07,0,0,0-2,2.15c.09,1.43,1.07,1.67,2.31,1.58s1.48.66,1.15,1.69c-2.15,6.86-12.08,12.16-19,10.77-2.9-.58-4.87-2.42-7.53-3.72-.06.9-.07,1.53-.14,2.16-.1.86.53,2.35-.91,2.27s-1-1.56-.9-2.6c.15-1.72.28-3.45.37-5.18.41-7,3.45-13.06,7.78-18.17,7.66-9.07,18-12.84,29.72-12.64,2.37,0,2.62-.57,2.25-2.65a119.51,119.51,0,0,0-7.74-25c-1.44-3.49-2.79-3.54-5.66-2.41-10.18,4-19.57,9.15-26.89,17.54-2.11,2.41-2.9,2.19-4.3-.82a44.31,44.31,0,0,1-3.11-10.87,10,10,0,0,1,.09-3.23,2,2,0,0,1,1.2-1.8c1.05-.34,1.08.81,1.62,1.22.95.71.71,1.7.83,2.65.16,1.37-.34,2.89.84,4.46,1.39-3.56,2.67-6.76,3.88-10a6,6,0,0,1,4.76-4c6.5-1.11,12.49-4,19.28-5-2.78-5-6.47-8.67-10.24-12.4-9.72-9.59-21.33-15.47-34.46-18.76-7.41-1.86-15-1.84-22.51-2.53-2.69-.25-5.15-.64-7.31-2.81-1.41-1.43-2.85-3.34-5.33-3.95a9.42,9.42,0,0,0,.49,2.54c2.71,4.89-.41,7.57-3.54,10.67-5.68,5.63-11.08,11.54-16.45,17.47-13.05,14.39-20.82,31.64-26.78,49.87-4.63,14.13-8.67,28.39-10.53,43.19-.33,2.57-.11,5.24-1.73,7.58-3.62-32.24,2.57-62.83,15.91-92.25a29,29,0,0,0-3.72,6.84c-2.13,5-3.66,10.32-6.63,14.7a275.71,275.71,0,0,0-22.3,40.45,183.11,183.11,0,0,0-11.06,31.65c-.37,1.47.28,1.9,1,2.66,2.81,3,5.77,5.92,7.58,9.67.94,1.94,1.58,4.08.84,6.27-3.13-7.79-8.46-14-13.86-20a34,34,0,0,0-19-10.41c-4.89-1-8.81-1-12,5-1.66,3.09-3.33,6.14-4.7,9.42-4.41,10.62-4.92,21.64-3.67,32.78a31.57,31.57,0,0,0,2.22,9.27c2.92,6.64,8,11.14,13.87,14.93,1.13.73,1.28.11,1.78-.76a9.82,9.82,0,0,1,7-5.06c1.44-.26,2.19.7,2.89,1.68.38.51.32,1.11-.33,1.3-2.27.65-3,2.63-4,4.39-.28.48-.53,1.06-1.19.78-.82-.35-.62-1.13-.33-1.67.81-1.53,1.74-3,2.77-4.74-5.63,2.45-7.38,5.25-6.59,10.1.49,3,2.9,4.54,5,3,1.62-1.18,2.86-2.8,5.07-.89C152.37,228.86,153.2,228,153.17,227ZM137.63,586.37c1.38-.61,2.78-1.17,4.14-1.83,10.76-5.16,20.4-12.15,30.44-18.51,5.63-3.56,10-8.57,15.15-12.66,3.54-2.79,6.71-6.43,10.17-9.58a6.12,6.12,0,0,0,1.86-3.34c1.41-6.7,3.08-13.35,4.23-20.09,2.08-12.23,3-24.63,5.64-36.83C188.05,519.69,161.92,552.33,137.63,586.37Zm136.31-44.75c3.41-18.39,6.63-35.9,9.92-53.4,2-10.61,3.55-21.29,4.84-32,1.33-11,3.69-21.87,3.61-33.13-.08-10.73-6.26-21.55-14.68-28.8,1.55,4.57,2.75,8.68,4.32,12.63,2.18,5.45,3.84,11.09,3.35,16.89-.68,8.23-3.29,16.17-4.51,24.35-1.71,11.4-3.9,22.72-5.89,34.08-1.19,6.77-2.69,13.51-3.51,20.33-1.21,10-2.32,20.12.16,30.09C272.21,535.3,271.32,538.34,273.94,541.62ZM51.4,428.49c2.87-3.63,2-7.42,2.45-10.79,2.66-21,12.49-38.54,24.95-55,9.2-12.17,19.55-23.38,29-35.36a266.34,266.34,0,0,0,28.09-43.46c.9-1.76,2.1-3.48,2.08-5.71-1.23.46-1.48,1.53-1.8,2.36-1.88,4.87-4.7,9.23-7.26,13.72-11.7,20.49-27.06,38.22-42.36,56-9.88,11.5-19.06,23.52-25.6,37.3C54.91,400.25,51.24,413.57,51.4,428.49Z"/><path d="M234.14,418c1.3-.35,2,.58,2.7,1.36,2.77,3,5.55,6,8.26,9.07,2.05,2.31,1.44,5.3,1.84,8a.72.72,0,0,1-.76.84c-.24,0-.54-.32-.71-.57a1.68,1.68,0,0,1-.28-.91c.2-6.92-5.18-10.5-8.93-15.07-.73-.89-1.86-1.52-2-2.81Z"/><path d="M197,364.54c-.15,6.29,2.44,11,5.95,15.67C198,378.57,193.91,368.26,197,364.54Z"/><path d="M234.21,418c-3.45-2.28-5.19-4.25-8.4-9.82a10.21,10.21,0,0,1,4,4.25c1.14,2.15,4.25,2.73,4.29,5.64Z"/><path d="M116.06,626.56c1.44-1.27,3.82-.62,4.13-3,.06-.45.71-.32,1,.08s.48.68.73,1c-1.47.82-1.18,3-2.94,3.66C117.42,628.88,117.07,627.47,116.06,626.56Z"/><path d="M310.25,250a46.85,46.85,0,0,1-15.35-4.83c-4-2.08-8-4.32-11.87-6.65-4.3-2.56-9-2.51-13.76-2.54-.64,0-1.37.32-1.69-.44s.35-1.17.82-1.59c.72-.65,1.47-1.26,2.18-1.93.4-.37.74-.87,1.36-.6s.57.87.35,1.37c-.61,1.43.3,1.68,1.36,1.86,5,.88,9.67,1.05,13.49-3.55,4.29-5.15,9.1-9.87,13.74-14.73,3.62-3.8,7.59-6.8,13.37-5.64,1.44.28,2.64-.73,3.83-1.51,3.23-2.1,5.72-1.93,8.47.78,2.45,2.41,5.09,4.69,6.7,7.86.34.68.53,1.9,1.65,1.67a2.17,2.17,0,0,0,1.49-1.95c.09-.63,0-1.4.77-1.64s.93.32,1.17.83c.36.75.56,1.63-.15,2.09-5.51,3.54-5.61,9.82-7.94,15-2.92,6.54-6.61,12.72-14.26,15A21.75,21.75,0,0,1,310.25,250Zm12.68-23c-6-2.93-9.43-2-14.06,3.84Z"/><path d="M215,148.16c-3.53,3.81-7,7.57-10.51,11.35-1,1.06.07,1.56.73,2,2.72,1.75,5.48,3.43,8.23,5.14.63.39,1.31.74,1.92,1.16a1.77,1.77,0,0,1,.59,2.74c-.72,1.17-1.56.88-2.48.49a44.09,44.09,0,0,1-9-5.06c-1.83-1.33-3.34-3.53-6.17-2.69a.69.69,0,0,1-.91-.66c.4-4.58.38-9.2,1.6-13.71.55-2,2.34-1.84,3.62-2.12a13.59,13.59,0,0,0,4.55-2.31c9.7-6.18,19.63-12.08,31.79-10.78a35.63,35.63,0,0,1,23.74,12,3.92,3.92,0,0,1,.77,1,18.57,18.57,0,0,1,1.06,3.69,31.87,31.87,0,0,0-16.75-11.5c1,2,1.77,3.48,2.53,4.93,1.57,3,.9,5.58-2.13,7.15-1.9,1-1.66,2-.51,3.25,3,3.29,2.93,7.39-.51,10.12-8.24,6.55-20.54,7.4-28.1-2-2.58-3.2-3.08-7-3.44-10.94C215.55,150.39,216,149.27,215,148.16Z"/><path d="M268.8,99.41c-.34-3.47.16-6.06-.64-8.6-.22-.69-.38-1.64.6-1.9s1.63.67,1.73,1.48c.56,4.71,1.63,9.37,1.61,14.14,0,2.44-2,2-3.36,1.84-4.29-.35-8.54-1.08-12.82-1.59a73,73,0,0,0-18.62.47,125.33,125.33,0,0,0-28.6,7.55c.29-8.81,6.69-12,13.18-14.72,8.75-3.72,17.71-6.84,27.2-8.26,4.34-.65,8.63-.32,12.94-.21,2.07,0,2.85,1.82,3.38,3.48A15,15,0,0,0,268.8,99.41Z"/><path d="M153.17,227c2.07-2.59,2.42-6.2,5-8.48.49-.42.84-1,1.35-1.39a1.31,1.31,0,0,1,1.78,0c.67.63.17,1.23-.29,1.66-2.88,2.71-2.69,6.39-3.27,9.87-.18,1.13.55,1.43,1.07,1.66a10.37,10.37,0,0,0,3.39.91c1.77.15,4.49-1,4.9,1.85.46,3.19-3.39,7.88-6,7.87-2,0-3-1.12-3.74-2.94-1.93-4.57-.78-9.09-.18-13.63.08-.62.24-1.23.43-2.16-1.78.53-1.6,2.11-2.33,3s-.52,2.29-2.17,1.8Z"/><path d="M137.25,175.93c-1.07-3.27,1.6-5.33,2.62-7.91.55-1.37,2.83-2.18,2.48-3.52-.28-1.07-2.24-1.69-3.52-2.56,1.88-1.32,3.22.07,4.6.67a50.19,50.19,0,0,1,20,15.23c.53.67,2.1,1.36,1.05,2.28s-1.84-.62-2.47-1.33c-2.45-2.72-4.44-5.88-7.55-8-2.41-1.62-4.81-3.25-7.27-4.77-1.73-1.08-3.18-.7-4.5,1a21.21,21.21,0,0,0-4.09,6.94c-.26.87-.44,1.68-1.47,1.91Z"/><path d="M193.12,158.12c-4.5-2.49-7.69-5.71-10.92-8.88-.48-.47-.86-1.05-.51-1.73.44-.84,1.21-.75,2-.55a25.87,25.87,0,0,0,6.71,1.1c1.28,0,1.59.72,1.71,1.85C192.35,152.47,192.72,155,193.12,158.12Z"/><path d="M321.78,181.79c-1.45,1.25-3.2,1.19-4.71,1.52-6.12,1.35-10.46,4.93-13.71,10.1-.54.86-1.09,2.42-2.31,1.69-1.58-.93-.11-2.1.47-3,4.32-6.37,9.72-11,18-11.08A2.34,2.34,0,0,1,321.78,181.79Z"/><path d="M158.81,188.92C156,200,156,200,161,209.13,154.46,207.27,153.22,196,158.81,188.92Z"/><path d="M137.17,175.86c.73,4.2-.66,8.19-.67,13-.77-.9-1.14-1.13-1.12-1.34.26-3.67.56-7.34.88-11,.05-.53.57-.56,1-.61Z"/><path d="M169.22,190.5c-1.69-2.64-2.2-5.77-4.21-8.18a.68.68,0,0,1,.19-1.09,1,1,0,0,1,1.41.39C168.34,184.3,169.78,187.08,169.22,190.5Z"/><path d="M185.82,162.24c3-.67,5.12.43,7.31.23.17,0,.54.38.54.6s-.3.75-.43.73C191,163.55,188.46,164.29,185.82,162.24Z"/><path d="M144.49,223.09c.82.84,1.49,1.48,2.11,2.16.48.52,1.35.92,1.05,1.77a1.93,1.93,0,0,1-1.25.85,1.74,1.74,0,0,1-2-1.16A3.23,3.23,0,0,1,144.49,223.09Z"/></g></g></svg>